<svg xmlns="http://www.w3.org/2000/svg" viewBox="0 0 384.99 384.99">
  <title>depot-center</title>
  <g>
    <circle cx="192.5" cy="192.5" r="192.5" style="fill: #4c4c47"/>
    <path d="M295.42,100.58l88.33,70.08A194.48,194.48,0,0,1,385,192.5c0,104.33-83,189.26-186.57,192.4l-110.61-87L104.32,299,133,290.83l28.67-32.49L191.86,235l13.7,5.33L229.66,263S250,279,248.5,281s13.16,9.82,13.16,9.82l20,6.85,9.78-6.85L299.66,275,299,265s-16-19.87-18-22.27-40.67-37.79-40.67-37.79V191.21L257,187l30.67-8,14.67-35.33-8-27.33,1.09-15.76" style="fill: #181f1c"/>
    <path d="M97,74.07l-5,4.74L79.43,91.38l-4.74,5,3.63,5.86L97,133.51,99.52,138h26.23l35.72,35.44c-31.9,32.07-72.5,72.78-73.95,74.23-14,14-14,36.92.28,50.23,14,13.78,36.68,14.13,49.95,0l.28-.28,55-55.25,55.25,55.53.84.56c14,13.23,36.3,13.38,49.39-.56v-.28h.28c13.67-14,13.81-36.72-.28-49.95l-.28-.28L251.61,201c31.35-2.92,55.9-29.4,56.37-61.39h.28c0-.19,0-.37,0-.56s0-.18,0-.28a46.21,46.21,0,0,0-6.7-28.74l-6.14-9.49-7.81,7.81-33.77,33.77L241.28,129l32.93-32.93,9.49-9.49-12.28-5a62.21,62.21,0,0,0-87.34,57.21,55.76,55.76,0,0,0,1.4,10.32c-3.91,3.92-6.85,7.11-11.44,11.72l-35.44-35.44V98.91l-4.46-2.51L102.87,77.7ZM246.58,94.17c1.27,0,2.14.74,3.35.84l-27.63,27.63-6.14,6.14,6.14,6.42,25.11,26,6.14,6.42,6.42-6.42,29-29c.19,2,1.63,3.55,1.4,5.86v.84a44.73,44.73,0,0,1-44.65,44.65A65,65,0,0,1,234,181.79l-4.74-.84-3.35,3.35-100.74,101h-.28v.28c-6.36,6.94-17.45,7.1-24.84-.28V285H99.8c-6.94-6.36-7.1-17.45.28-24.84,3.38-3.38,68.93-69.49,101-101.57l3.63-3.63-1.4-5a55.27,55.27,0,0,1-1.4-11.16A44.73,44.73,0,0,1,246.58,94.17ZM99.8,96.4l20.93,12.84v8.93l-2,2h-8.93L97,99.19ZM230.4,204.95l55.53,55.25v.28h.28c6.94,6.36,7.1,17.45-.28,24.84h-.28v.28c-6.36,6.94-17.45,7.1-24.84-.28l-55.25-55.53Z" style="fill: #8dc63f"/>
  </g>
</svg>
