<svg xmlns="http://www.w3.org/2000/svg" viewBox="0 0 500.02 109.84">
  <title>indemand-logo</title>
  <g>
    <g>
      <path d="M70.39,25H46.31v35.5a3.31,3.31,0,1,1-6.61,0V46.7H23.61V60.48a19.4,19.4,0,1,0,38.81,0V41.08h8a13.84,13.84,0,0,1,0,27.67H66.14c-1.75,8.91-9.76,16.1-19.18,16.1H70.57A29.93,29.93,0,0,0,70.39,25Z" style="fill: none"/>
      <path d="M62,2A52.94,52.94,0,1,0,114.9,54.92,52.94,52.94,0,0,0,62,2ZM23.61,25H39.74V41.12H23.61Zm47,59.87H47c9.42,0,17.43-7.19,19.18-16.1h4.24a13.84,13.84,0,0,0,0-27.67h-8v19.4a19.4,19.4,0,1,1-38.81,0V46.7H39.7V60.48a3.31,3.31,0,1,0,6.61,0V25H70.39a29.93,29.93,0,0,1,.18,59.87Z" style="fill: #8dc63f"/>
    </g>
    <g>
      <g>
        <path d="M155.37,31.44v1.27h-9.93V77.06h9.93V78.4h-21.2V77.06H144V32.71h-9.86V31.44Z" style="fill: #414042"/>
        <polygon points="156.69 79.72 132.85 79.72 132.85 75.73 142.71 75.73 142.71 34.04 132.85 34.04 132.85 30.12 156.69 30.12 156.69 34.04 146.76 34.04 146.76 75.73 156.69 75.73 156.69 79.72" style="fill: #414042"/>
      </g>
      <g>
        <path d="M165.57,78.4h-1.41V42.11h1.34l-.07,10a12.88,12.88,0,0,1,2.88-5.37q4.29-4.7,11.61-4.7,7.51-.07,11.67,4.6t4.16,12.24V78.4h-1.34V58.88q0-7-3.79-11.3t-10.77-4.19a13.85,13.85,0,0,0-10.6,4.29q-3.62,3.89-3.69,10.8Z" style="fill: #414042"/>
        <path d="M197.08,79.72h-4V58.88c0-4.34-1.16-7.85-3.46-10.42s-5.38-3.75-9.57-3.75h-.2a12.49,12.49,0,0,0-9.65,3.88c-2.17,2.33-3.29,5.67-3.33,9.91V79.72h-4.06V40.78h4l0,5.69q.27-.33.56-.64c3.1-3.39,7.33-5.12,12.57-5.12h.21c5.28,0,9.47,1.7,12.45,5s4.5,7.76,4.5,13.12Z" style="fill: #414042"/>
      </g>
      <path d="M206.55,31.44h15.9a24.36,24.36,0,0,1,10.06,2,19.77,19.77,0,0,1,7.28,5.37,24.53,24.53,0,0,1,4.26,7.51A25.71,25.71,0,0,1,245.53,55a25.42,25.42,0,0,1-1.48,8.62,24.61,24.61,0,0,1-4.26,7.48,19.44,19.44,0,0,1-7.28,5.33,24.71,24.71,0,0,1-10.06,2h-15.9ZM208,77h14.49q10.2,0,15.93-6.51A22.65,22.65,0,0,0,244.12,55a24.49,24.49,0,0,0-1.38-8.15,22.81,22.81,0,0,0-4-7.08,18.45,18.45,0,0,0-6.84-5,23.06,23.06,0,0,0-9.46-1.88H208Z" style="fill: #414042"/>
      <path d="M289.14,60.29H255a19,19,0,0,0,1.27,7,15.57,15.57,0,0,0,5.63,7.25,16.08,16.08,0,0,0,9.53,2.75A16.75,16.75,0,0,0,280.31,75a14.92,14.92,0,0,0,5.87-6.78h1.41A16.12,16.12,0,0,1,281.29,76a18,18,0,0,1-9.86,2.68A16.79,16.79,0,0,1,255,67.8a21.52,21.52,0,0,1,0-15A16.79,16.79,0,0,1,271.43,42a17,17,0,0,1,12.85,5.17A18,18,0,0,1,289.14,60.29ZM255,59h32.8a16.82,16.82,0,0,0-4.93-11.34,15.68,15.68,0,0,0-11.44-4.36,16.08,16.08,0,0,0-9.53,2.75,15.58,15.58,0,0,0-5.63,7.25A18,18,0,0,0,255,59Z" style="fill: #414042"/>
      <path d="M300.47,42.11v8.72a12.1,12.1,0,0,1,2.15-4.29A12.67,12.67,0,0,1,312.88,42H313q6.3,0,9.93,4a14.34,14.34,0,0,1,3.29,7.31,12.64,12.64,0,0,1,2.88-6.84Q332.74,42,339.32,42h.13q6.31,0,9.93,4,3.89,4.29,4,12.14V78.4H352V58.21q-.07-7.45-3.56-11.2a11.66,11.66,0,0,0-9-3.62h-.13a11.2,11.2,0,0,0-9.19,4q-3.22,3.89-3.22,11.14V78.4h-1.34V58.54q0-7.58-3.62-11.54-3.22-3.62-8.92-3.62h-.13a11.2,11.2,0,0,0-9.19,4q-3.15,3.69-3.22,10.53V78.4h-1.34V42.11Z" style="fill: #414042"/>
      <path d="M381,41.91A18,18,0,0,1,391.51,45a15.55,15.55,0,0,1,6.1,8.69l-.07-3.15V42.11h1.27V78.4h-1.34V73.57l.07-6.91a16.43,16.43,0,0,1-6.14,8.79,18.93,18.93,0,0,1-20.66.17,16.86,16.86,0,0,1-6.07-7.88,20.56,20.56,0,0,1,0-15,16.87,16.87,0,0,1,6.07-7.88A17.3,17.3,0,0,1,381,41.91ZM396.2,67.26a18.56,18.56,0,0,0,0-14A15.59,15.59,0,0,0,390.57,46a17.87,17.87,0,0,0-19.05,0,15.58,15.58,0,0,0-5.64,7.25,19,19,0,0,0,0,14,15.57,15.57,0,0,0,5.64,7.25,17.87,17.87,0,0,0,19.05,0A15.58,15.58,0,0,0,396.2,67.26Z" style="fill: #414042"/>
      <path d="M412.77,78.4h-1.41V42.11h1.34l-.07,10a12.88,12.88,0,0,1,2.88-5.37q4.29-4.7,11.61-4.7,7.51-.07,11.67,4.6T443,58.88V78.4h-1.34V58.88q0-7-3.79-11.3t-10.77-4.19a13.85,13.85,0,0,0-10.6,4.29q-3.62,3.89-3.69,10.8Z" style="fill: #414042"/>
      <path d="M473.22,41.91A18,18,0,0,1,483.68,45a15.24,15.24,0,0,1,6,8.69l-.07-22.21H491v47h-1.34V73.57l.07-6.91a16.43,16.43,0,0,1-6.14,8.79,17.56,17.56,0,0,1-26.8-7.71,20.12,20.12,0,0,1,0-15,16.79,16.79,0,0,1,16.44-10.87Zm15.09,25.36a18.56,18.56,0,0,0,0-14A15.18,15.18,0,0,0,482.74,46a17.87,17.87,0,0,0-19.05,0,15.58,15.58,0,0,0-5.63,7.25,18.55,18.55,0,0,0,0,14,15.57,15.57,0,0,0,5.63,7.25,17.87,17.87,0,0,0,19.05,0A15.17,15.17,0,0,0,488.31,67.26Z" style="fill: #414042"/>
    </g>
  </g>
</svg>
