<svg xmlns="http://www.w3.org/2000/svg" viewBox="0 0 384.99 384.99">
  <title>it-solutions</title>
  <circle cx="192.5" cy="192.5" r="192.5" style="fill: #4c4c47"/>
  <path d="M384.44,207.19,289.16,95.83l-6,6V281.16H109.83l-14,8L198,384.91C296.87,382.11,377.07,304.82,384.44,207.19Z" style="fill: #181f1c"/>
  <path d="M95.83,95.83V289.16H289.16V95.83H95.83ZM113.4,113.4h75.25l-20.32,20.32a25.69,25.69,0,0,0-11-2.75,26.36,26.36,0,1,0,26.36,26.36,25.69,25.69,0,0,0-2.75-11l33-33h57.67V259l-20.32-20.32a25.69,25.69,0,0,0,2.75-11A26.36,26.36,0,1,0,227.65,254a25.69,25.69,0,0,0,11-2.75L259,271.59H113.4ZM227.65,131a26.5,26.5,0,0,0-26.36,26.36,25.69,25.69,0,0,0,2.75,11L168.33,204a25.69,25.69,0,0,0-11-2.75,26.36,26.36,0,1,0,26.36,26.36,25.69,25.69,0,0,0-2.75-11l35.7-35.7a25.69,25.69,0,0,0,11,2.75,26.36,26.36,0,0,0,0-52.73Zm-70.3,17.58a8.79,8.79,0,1,1-8.79,8.79A8.66,8.66,0,0,1,157.34,148.56Zm70.3,0a8.79,8.79,0,1,1-8.79,8.79A8.66,8.66,0,0,1,227.65,148.56Zm-70.3,70.3a8.79,8.79,0,1,1-8.79,8.79A8.66,8.66,0,0,1,157.34,218.86Zm70.3,0a8.79,8.79,0,1,1-8.79,8.79A8.66,8.66,0,0,1,227.65,218.86Z" style="fill: #8dc63f"/>
</svg>
